<?xml version="1.0" encoding="UTF-8" standalone="no"?>
<svg
   id="svg4524"
   version="1.1"
   viewBox="0 0 63.500001 88.900003">

  <defs
     id="defs6352" />
  <g
     transform="translate(0,-208.09998)"
     id="layer1">
    <rect
       ry="5"
       rx="5"
       y="208.09999"
       x="0"
       height="88.900002"
       width="63.5"
       id="rect5620"
       style="opacity:1;fill:#151515;fill-opacity:1;stroke:none;stroke-width:0.29142535;stroke-miterlimit:4;stroke-dasharray:none;stroke-opacity:1" />
    <path
       id="path830-3"
       d="m 22.671875,232.60974 c -0.192118,3.8427 0.284906,6.53814 1.466797,8.02539 l 0.01367,-0.0137 c -0.284397,0.81239 -0.430949,1.66661 -0.433594,2.52734 0.0028,3.04041 1.789715,5.79611 4.564453,7.03907 -4.239041,4.18543 -9.768901,14.04185 -7.01367,19.88867 -2.926291,-2.60869 -4.046701,-5.12544 -3.523437,-7.98829 0.541536,-2.96282 3.262965,-5.54699 3.484375,-8.64648 0.21603,-3.02418 -0.89549,-8.98134 -2.166016,-8.83398 -2.028884,0.98766 0.976413,4.84943 0.769531,7.28125 -0.431612,5.07343 -5.990702,9.95438 -4.148437,14.70117 1.792471,4.6185 5.380702,7.2506 12.628906,7.83593 0.946348,0.13724 1.969724,0.22461 3.125,0.22461 18.390419,0 9.361376,-18.33664 3.152344,-24.46484 2.775617,-1.24151 4.564102,-3.99649 4.568359,-7.03711 -0.0021,-0.90521 -0.163452,-1.803 -0.476562,-2.65234 l 0.18164,0.18554 c 1.181891,-1.48725 1.660868,-4.18269 1.46875,-8.02539 -2.811644,0.71406 -5.214962,1.6203 -6.128906,3.28321 l 0.01563,0.0156 c -0.88666,-0.34569 -1.829589,-0.52448 -2.78125,-0.52735 -0.903786,0.002 -1.800208,0.16262 -2.648437,0.47461 l 0.0098,-0.01 c -0.913944,-1.66291 -3.317262,-2.56914 -6.128906,-3.2832 z"
       style="fill:#fcfcfc;fill-opacity:1;stroke:#ffffff;stroke-width:0.24566929;stroke-linecap:butt;stroke-linejoin:miter;stroke-miterlimit:4;stroke-dasharray:none;stroke-opacity:1" />
  </g>
</svg>
