<?xml version="1.0" encoding="UTF-8" standalone="no"?>
<svg
   id="svg4524"
   version="1.1"
   viewBox="0 0 63.500001 88.900003"
   >
  <defs
     id="defs7071" />
  <g
     transform="translate(0,-208.09998)"
     id="layer1">
    <rect
       ry="4.9836626"
       rx="4.9836626"
       y="208.24522"
       x="0.14523655"
       height="88.609528"
       width="63.292519"
       id="rect5620"
       style="opacity:1;fill:#151515;fill-opacity:1;stroke:#e13e8a;stroke-width:0;stroke-miterlimit:4;stroke-dasharray:none;stroke-opacity:1" />
    <g
       transform="matrix(0.00878596,0,0,-0.00878596,5.0821776,220.76013)"
       id="g6237">
      <path
         id="path6239"
         style="fill:#ffffff;fill-opacity:1;fill-rule:evenodd;stroke:none"
         d="m 102.453,859.555 c -11.8046,7.218 -26.1366,10.906 -42.9374,10.906 -17.5976,0 -31.9218,-3.688 -42.8242,-10.906 C 5.5625,852.289 -0.00390625,842.859 -0.00390625,831.281 V 40.2773 c 0,-10 5.78906625,-19.082 17.27340625,-27.5976 11.3516,-8.46486 25.3321,-12.68360625 42.2461,-12.68360625 16.0157,0 30.0977,4.21874625 42.3634,12.68360625 12.156,8.4101 18.41,17.5976 18.41,27.5976 V 831.281 c 0,11.578 -6.019,20.895 -17.836,28.274" />
      <path
         id="path6241"
         style="fill:#ffffff;fill-opacity:1;fill-rule:evenodd;stroke:none"
         d="m 201.504,444.465 c -7.164,-6.762 -10.223,-16.985 -8.856,-30.945 1.118,-13.915 7.497,-27.157 18.957,-39.59 11.352,-12.547 24.2,-20.379 38.731,-23.797 14.316,-3.242 25.215,-1.477 32.5,5.273 l 63.594,39.707 V 40.2773 c 0,-10 5.457,-19.082 16.707,-27.5976 10.898,-8.46486 24.98,-12.68360625 41.789,-12.68360625 16.804,0 31.238,4.21874625 43.504,12.68360625 12.148,8.5156 18.293,17.5976 18.293,27.5976 V 517.328 c 0,11.59 -6.028,20.899 -17.715,28.055 -11.828,7.383 -26.465,10.906 -44.082,10.906 -17.61,0 -31.692,-3.523 -42.363,-10.906 L 201.504,444.465" />
    </g>
    <path
       id="path6296"
       d="m 6.4712864,281.44248 v -57.15"
       style="fill:none;stroke:#ffffff;stroke-width:0.5px;stroke-linecap:butt;stroke-linejoin:miter;stroke-opacity:1" />
    <path
       id="path6298"
       d="M 12.7,217.50384 H 50.8"
       style="fill:none;stroke:#ffffff;stroke-width:0.5px;stroke-linecap:butt;stroke-linejoin:miter;stroke-opacity:1" />
  </g>
</svg>
