<?xml version="1.0" encoding="UTF-8" standalone="no"?>
<svg
   viewBox="0 0 63.500001 88.900003"
   version="1.1"
   id="svg4524">
  <defs
     id="defs6352" />
  <g
     id="layer1"
     transform="translate(0,-208.09998)">
    <path
       style="fill:#000000;fill-opacity:1;stroke:#ffffff;stroke-width:0.50471437;stroke-linecap:butt;stroke-linejoin:miter;stroke-miterlimit:4;stroke-dasharray:none;stroke-opacity:1"
       d="m 18.130625,209.62188 c -0.394696,7.89462 0.585325,13.43227 3.013456,16.48774 l 0.02809,-0.0282 c -0.584279,1.66901 -0.885362,3.42395 -0.890795,5.19228 0.0057,6.24636 3.676872,11.9078 9.377424,14.46139 -8.708882,8.59874 -20.069684,28.84822 -14.409209,40.8602 -6.0119085,-5.35942 -8.3137308,-10.52994 -7.2387129,-16.41151 1.1125566,-6.08696 6.7035869,-11.39599 7.1584619,-17.76373 0.443822,-6.21302 -1.839736,-18.45168 -4.449964,-18.14894 -4.1682334,2.02909 2.005988,9.9629 1.58096,14.95893 -0.886724,10.42309 -12.30757577,20.45075 -8.5227411,30.20277 3.6825355,9.48847 11.0543641,14.89598 25.9454101,16.0985 1.944221,0.28196 4.046693,0.46146 6.420144,0.46146 37.78213,0 19.232445,-37.67165 6.476323,-50.26171 5.702355,-2.55062 9.376702,-8.21057 9.385448,-14.45736 -0.0043,-1.85971 -0.335804,-3.70417 -0.979071,-5.44909 l 0.373169,0.38118 c 2.428132,-3.05548 3.412165,-8.59311 3.017468,-16.48773 -5.776371,1.46699 -10.71386,3.32881 -12.591508,6.74517 l 0.03211,0.0321 c -1.821596,-0.7102 -3.758793,-1.07752 -5.713929,-1.08341 -1.85678,0.004 -3.698431,0.33409 -5.441072,0.97506 l 0.02013,-0.0206 c -1.877648,-3.41636 -6.815137,-5.27815 -12.591508,-6.74516 z"
       id="path830-3" />
  </g>
</svg>
